<svg width="31.585510" height="30.444824" viewBox="0 0 31.5855 30.4448" fill="none" xmlns="http://www.w3.org/2000/svg" xmlns:xlink="http://www.w3.org/1999/xlink">
	<desc>
			Created with Pixso.
	</desc>
	<defs/>
	<path id="Vector" d="M31.5 26L25.03 1.85C24.85 1.21 24.43 0.66 23.86 0.33C23.29 0 22.6 -0.09 21.96 0.08L17.14 1.38L16.98 1.42C16.75 1.12 16.45 0.87 16.1 0.7C15.76 0.53 15.38 0.44 15 0.44L10 0.44C9.56 0.44 9.12 0.56 8.75 0.78C8.37 0.56 7.93 0.44 7.5 0.44L2.5 0.44C1.83 0.44 1.2 0.7 0.73 1.17C0.26 1.64 0 2.28 0 2.94L0 27.94C0 28.6 0.26 29.24 0.73 29.71C1.2 30.18 1.83 30.44 2.5 30.44L7.5 30.44C7.93 30.44 8.37 30.32 8.75 30.1C9.12 30.32 9.56 30.44 10 30.44L15 30.44C15.66 30.44 16.29 30.18 16.76 29.71C17.23 29.24 17.5 28.6 17.5 27.94L17.5 12.38L21.84 28.58C21.98 29.11 22.29 29.59 22.73 29.92C23.17 30.26 23.71 30.44 24.26 30.44C24.48 30.44 24.69 30.41 24.9 30.36L29.73 29.06C30.37 28.89 30.92 28.47 31.25 27.9C31.58 27.33 31.67 26.64 31.5 26ZM22.6 2.5L23.59 6.11L18.76 7.41L17.78 3.8L22.6 2.5ZM15 2.94L15 21.69L10 21.69L10 2.94L15 2.94ZM7.5 2.94L7.5 6.69L2.5 6.69L2.5 2.94L7.5 2.94ZM15 27.94L10 27.94L10 24.19L15 24.19L15 27.94ZM29.09 26.64L24.26 27.94L23.28 24.31L28.12 23.02L29.09 26.64Z" fill="#B1B1B1" fill-opacity="1.000000" fill-rule="nonzero"/>
</svg>
