<svg width="40.000000" height="40.000000" viewBox="0 0 40 40" fill="none" xmlns="http://www.w3.org/2000/svg" xmlns:xlink="http://www.w3.org/1999/xlink">
	<desc>
			Created with Pixso.
	</desc>
	<defs>
		<clipPath id="clip31_1695">
			<rect id="IMAGE" rx="0.000000" width="39.000000" height="39.000000" transform="translate(0.500000 0.500000)" fill="white" fill-opacity="0"/>
		</clipPath>
	</defs>
	<g clip-path="url(#clip31_1695)">
		<path id="Vector" d="M32.5 3.75L11.25 3.75C9.92 3.75 8.65 4.28 7.71 5.21C6.78 6.15 6.25 7.42 6.25 8.75L6.25 35C6.25 35.33 6.38 35.64 6.61 35.88C6.85 36.11 7.16 36.25 7.5 36.25L30 36.25C30.33 36.25 30.64 36.11 30.88 35.88C31.11 35.64 31.25 35.33 31.25 35C31.25 34.66 31.11 34.35 30.88 34.11C30.64 33.88 30.33 33.75 30 33.75L8.75 33.75C8.75 33.08 9.01 32.45 9.48 31.98C9.95 31.51 10.58 31.25 11.25 31.25L32.5 31.25C32.83 31.25 33.14 31.11 33.38 30.88C33.61 30.64 33.75 30.33 33.75 30L33.75 5C33.75 4.66 33.61 4.35 33.38 4.11C33.14 3.88 32.83 3.75 32.5 3.75ZM28.75 18.75L24.75 15.75C24.64 15.66 24.51 15.62 24.37 15.62C24.23 15.62 24.1 15.66 24 15.75L20 18.75L20 6.25L28.75 6.25L28.75 18.75Z" fill="#B1B1B1" fill-opacity="1.000000" fill-rule="nonzero"/>
	</g>
</svg>
