<svg width="36" height="36" viewBox="0 0 36 36" fill="none" xmlns="http://www.w3.org/2000/svg">
<path d="M13 11.75C12.9971 12.152 13.018 12.5538 13.0625 12.9532L1.37504 28.8907C1.02107 29.3728 0.851661 29.9658 0.897536 30.562C0.943399 31.1583 1.20151 31.7184 1.62504 32.1407L3.85941 34.375C4.28167 34.7985 4.84176 35.0567 5.43806 35.1025C6.03436 35.1484 6.62735 34.979 7.10941 34.625L23.0469 22.9375C23.4464 22.9822 23.8481 23.003 24.25 23C26.5464 23.0003 28.7876 22.2968 30.6719 20.9844C30.7461 20.9317 30.808 20.8633 30.853 20.7842C30.8981 20.7049 30.9252 20.6169 30.9327 20.526C30.9402 20.4353 30.9277 20.3439 30.8961 20.2584C30.8646 20.173 30.8147 20.0955 30.75 20.0313L15.9687 5.25006C15.9046 5.18538 15.8271 5.13552 15.7416 5.10395C15.6561 5.07239 15.5649 5.05991 15.474 5.06734C15.3832 5.07478 15.2951 5.10199 15.216 5.14704C15.1367 5.19211 15.0685 5.25393 15.0156 5.32818C13.7032 7.21251 12.9997 9.45374 13 11.75ZM15.7656 22.0157L12.6406 25.1407C12.4017 25.3717 12.0824 25.5009 11.75 25.5009C11.4176 25.5009 11.0984 25.3717 10.8594 25.1407C10.6246 24.9037 10.493 24.5837 10.493 24.25C10.493 23.9165 10.6246 23.5964 10.8594 23.3594L13.9844 20.2344C14.2272 20.0352 14.5356 19.9333 14.8494 19.9487C15.1632 19.964 15.4601 20.0957 15.6822 20.3178C15.9045 20.54 16.036 20.8369 16.0515 21.1507C16.0669 21.4645 15.965 21.7728 15.7656 22.0157ZM35.4844 11.125C35.6226 13.6314 34.9185 16.1119 33.4844 18.1719C33.4316 18.2462 33.3632 18.308 33.2841 18.353C33.2049 18.3982 33.1169 18.4253 33.026 18.4328C32.9352 18.4403 32.8439 18.4278 32.7585 18.3962C32.673 18.3647 32.5955 18.3148 32.5312 18.25L17.75 3.46881C17.6854 3.40464 17.6355 3.32712 17.6039 3.24165C17.5724 3.15619 17.5599 3.06487 17.5674 2.97407C17.5747 2.88327 17.602 2.79519 17.647 2.71602C17.6921 2.63683 17.7539 2.56846 17.8281 2.51568C19.4716 1.37261 21.3904 0.68878 23.3862 0.534755C25.3822 0.38073 27.3831 0.762093 29.1825 1.63949C30.9819 2.51688 32.5146 3.85853 33.6224 5.52598C34.7301 7.19342 35.373 9.12627 35.4844 11.125Z" fill="#017CFF"/>
</svg>
