<svg width="34" height="28" viewBox="0 0 34 28" fill="none" xmlns="http://www.w3.org/2000/svg">
<path d="M23.25 9.625C23.25 10.1222 23.0525 10.5993 22.7009 10.9509C22.3492 11.3025 21.8722 11.5 21.375 11.5C20.8778 11.5 20.4008 11.3025 20.0491 10.9509C19.6975 10.5993 19.5 10.1222 19.5 9.625C19.5 9.12775 19.6975 8.65075 20.0491 8.29912C20.4008 7.9475 20.8778 7.75 21.375 7.75C21.8722 7.75 22.3492 7.9475 22.7009 8.29912C23.0525 8.65075 23.25 9.12775 23.25 9.625ZM33.25 2.75V22.75V25.25C33.25 25.913 32.9866 26.5489 32.5177 27.0177C32.0489 27.4866 31.413 27.75 30.75 27.75H3.25C2.58696 27.75 1.95107 27.4866 1.48224 27.0177C1.01339 26.5489 0.75 25.913 0.75 25.25V20.25V2.75C0.75 2.08696 1.01339 1.45108 1.48224 0.982238C1.95107 0.513388 2.58696 0.25 3.25 0.25H30.75C31.413 0.25 32.0489 0.513388 32.5177 0.982238C32.9866 1.45108 33.25 2.08696 33.25 2.75ZM30.75 19.7344V2.75H3.25V17.2344L8.98438 11.5C9.45504 11.0363 10.0892 10.7762 10.75 10.7762C11.4108 10.7762 12.045 11.0363 12.5156 11.5L19.5 18.4844L22.7344 15.25C23.205 14.7863 23.8393 14.5262 24.5 14.5262C25.1607 14.5262 25.795 14.7863 26.2656 15.25L30.75 19.7344Z" fill="#87CDFF"/>
</svg>
