<svg width="50.916443" height="45.635254" viewBox="0 0 50.9164 45.6353" fill="none" xmlns="http://www.w3.org/2000/svg" xmlns:xlink="http://www.w3.org/1999/xlink">
	<desc>
			Created with Pixso.
	</desc>
	<defs/>
	<path id="Vector" d="M20.37 45.63L20.37 23.74L10.91 23.74C10.91 20.23 11.57 17.29 12.91 14.92C14.25 12.46 16.74 10.61 20.37 9.38L20.37 0C17.41 0.37 14.63 1.27 12.05 2.7C9.57 4.02 7.42 5.73 5.6 7.81C3.78 9.9 2.35 12.32 1.3 15.06C0.34 17.81 -0.09 20.75 0.01 23.88L0.01 45.63L20.37 45.63ZM50.91 45.63L50.91 23.74L41.45 23.74C41.45 20.23 42.12 17.29 43.46 14.92C44.79 12.46 47.28 10.61 50.91 9.38L50.91 0C47.95 0.37 45.18 1.27 42.59 2.7C40.11 4.02 37.96 5.73 36.14 7.81C34.33 9.9 32.89 12.32 31.84 15.06C30.88 17.81 30.45 20.75 30.55 23.88L30.55 45.63L50.91 45.63Z" fill="#FFFFFF" fill-opacity="1.000000" fill-rule="nonzero"/>
</svg>
